<?xml version="1.0" encoding="utf-8"?>
<!-- Generator: Adobe Illustrator 20.0.0, SVG Export Plug-In . SVG Version: 6.00 Build 0)  -->
<svg version="1.1" id="Layer_1" xmlns="http://www.w3.org/2000/svg" xmlns:xlink="http://www.w3.org/1999/xlink" x="50px" y="50px"
	 viewBox="0 0 164.5 40" style="enable-background:new 0 0 164.5 40;" xml:space="preserve">
<style type="text/css">
	.st0{fill:#93B777;}
	.st1{font-family:'Futura-Medium';}
	.st2{font-size:42px;}
	.st3{fill:none;stroke:#27AAE1;stroke-miterlimit:10;}
</style>
<text transform="matrix(1 0 0 1 0 36.1549)" class="st0 st1 st2">O</text>
<text transform="matrix(1 0 0 1 0 36.1549)" class="st3 st1 st2">O</text>
<text transform="matrix(1 0 0 1 35.8 36.1549)" class="st0 st1 st2">D</text>
<text transform="matrix(1 0 0 1 35.8 36.1549)" class="st3 st1 st2">D</text>
<text transform="matrix(1 0 0 1 65.5 36.1549)" class="st0 st1 st2">O</text>
<text transform="matrix(1 0 0 1 65.5 36.1549)" class="st3 st1 st2">O</text>
<text transform="matrix(1 0 0 1 101.9 36.1549)" class="st0 st1 st2">Y</text>
<text transform="matrix(1 0 0 1 101.9 36.1549)" class="st3 st1 st2">Y</text>
<text transform="matrix(1 0 0 1 125.5 36.1549)" class="st0 st1 st2">O</text>
<text transform="matrix(1 0 0 1 125.5 36.1549)" class="st3 st1 st2">O</text>
</svg>
